<?xml version="1.0" encoding="utf-8"?>
<!-- Generator: Adobe Illustrator 17.1.0, SVG Export Plug-In . SVG Version: 6.00 Build 0)  -->
<!DOCTYPE svg PUBLIC "-//W3C//DTD SVG 1.1//EN" "http://www.w3.org/Graphics/SVG/1.1/DTD/svg11.dtd">
<svg version="1.1" id="Layer_1" xmlns="http://www.w3.org/2000/svg" xmlns:xlink="http://www.w3.org/1999/xlink" x="0px" y="0px"
	 viewBox="406 278.8 236.9 236.9" enable-background="new 406 278.8 236.9 236.9" xml:space="preserve">
<g>
	<path d="M598.4,278.8c12.3,0,22.8,4.3,31.5,13c8.6,8.6,13,19.1,13,31.5v148c0,12.3-4.3,22.8-13,31.5c-8.6,8.6-19.1,13-31.5,13h-148
		c-12.3,0-22.8-4.3-31.5-13c-8.6-8.6-13-19.1-13-31.5v-148c0-12.3,4.3-22.8,13-31.5c8.6-8.6,19.1-13,31.5-13H598.4z M487.4,342.2
		h-50.9V450h52.3c5.6,0,10.3-0.6,14.3-1.9c4-1.2,8-3.1,12-5.6c3.4-2.2,6.3-5.4,8.8-9.7c2.2-4,3.2-8.8,3.2-14.3
		c0-6.5-1.7-12.2-5.1-17.1c-3.4-4.9-8.3-8.3-14.8-10.2c5.2-2.5,8.9-5.4,11.1-8.8c2.5-4,3.7-8.6,3.7-13.9c0-5.6-0.8-9.7-2.3-12.5
		c-2.5-4-4.9-6.8-7.4-8.3c-4.3-2.5-7.9-4-10.6-4.6C499,342.5,494.2,342.2,487.4,342.2z M484.6,385.7h-24.1v-25.4h22.2
		c2.8,0,4.8,0.2,6,0.5c1.9,0.3,3.5,1.1,5.1,2.3c1.5,0.9,2.8,2.2,3.7,3.7c0.9,1.2,1.4,3.2,1.4,6c0,4.6-1.4,7.9-4.2,9.7
		C491.7,384.6,488.3,385.7,484.6,385.7z M486,431.5h-25.4v-29.6h25.9c4.9,0,8.9,1.1,12,3.2c3.1,2.2,4.6,6.2,4.6,12
		c0,2.8-0.5,5.1-1.4,6.9c-0.9,2.2-2.2,3.7-3.7,4.6c-1.9,1.2-3.7,2-5.6,2.3C491,431.3,488.8,431.5,486,431.5z M561,431.5
		c-3.7-3.7-5.6-8.8-5.6-15.3h56.4c0.6-6.2,0.2-12-1.4-17.6c-1.5-5.9-3.9-10.8-6.9-14.8c-3.4-4.3-7.4-7.7-12-10.2
		c-4.9-2.8-10.8-4.2-17.6-4.2c-6.2,0-11.6,1.1-16.2,3.2c-4.6,2.2-8.8,5.1-12.5,8.8s-6.5,8-8.3,13c-1.9,4.9-2.8,10.5-2.8,16.7
		c0,6.2,0.9,11.7,2.8,16.7c1.5,4.6,4.2,8.9,7.9,13c4,4,8.2,6.8,12.5,8.3c5.9,2.2,11.4,3.2,16.7,3.2c8.9,0,16.5-2.2,22.7-6.5
		c5.9-3.7,10.5-10.3,13.9-19.9H592c-0.9,2.5-2.9,4.8-6,6.9c-3.1,2.2-6.8,3.2-11.1,3.2C568.7,436.1,564.1,434.6,561,431.5z
		 M551.7,349.1v10.2h43.9v-10.2H551.7z M585.5,390.3c3.1,3.1,4.8,7.2,5.1,12.5h-35.2l1.4-5.6c0.6-1.9,1.5-3.7,2.8-5.6
		c0.6-0.9,2.5-2.3,5.6-4.2c2.2-1.2,4.9-1.9,8.3-1.9C578.4,385.7,582.4,387.2,585.5,390.3z"/>
</g>
</svg>
