<?xml version="1.0" encoding="utf-8"?>
<!-- Generator: Adobe Illustrator 17.1.0, SVG Export Plug-In . SVG Version: 6.00 Build 0)  -->
<!DOCTYPE svg PUBLIC "-//W3C//DTD SVG 1.1//EN" "http://www.w3.org/Graphics/SVG/1.1/DTD/svg11.dtd">
<svg version="1.1" id="Layer_1" xmlns="http://www.w3.org/2000/svg" xmlns:xlink="http://www.w3.org/1999/xlink" x="0px" y="0px"
	 viewBox="645.7 278.8 800.3 800.3" enable-background="new 645.7 278.8 800.3 800.3" xml:space="preserve">
<g>
	<path fill="#222222" d="M1295.7,278.8c41.5,0,77,14.5,106.4,43.9c29,29,43.9,64.5,43.9,106.4v499.8c0,41.5-14.5,77-43.9,106.4
		c-29,29-64.5,43.9-106.4,43.9H795.9c-41.5,0-77-14.5-106.4-43.9c-29-29-43.9-64.5-43.9-106.4V429.1c0-41.5,14.5-77,43.9-106.4
		c29-29,64.5-43.9,106.4-43.9H1295.7z M920.9,492.9H749v364h176.6c18.9,0,34.8-2,48.3-6.4c13.5-4.1,27-10.5,40.5-18.9
		c11.5-7.4,21.3-18.2,29.7-32.8c7.4-13.5,10.8-29.7,10.8-48.3c0-22-5.7-41.2-17.2-57.7c-11.5-16.5-28-28-50-34.4
		c17.6-8.4,30.1-18.2,37.5-29.7c8.4-13.5,12.5-29,12.5-46.9c0-18.9-2.7-32.8-7.8-42.2c-8.4-13.5-16.5-23-25-28
		c-14.5-8.4-26.7-13.5-35.8-15.5C960.1,493.9,943.8,492.9,920.9,492.9z M911.4,639.8H830V554h75c9.5,0,16.2,0.7,20.3,1.7
		c6.4,1,11.8,3.7,17.2,7.8c5.1,3,9.5,7.4,12.5,12.5c3,4.1,4.7,10.8,4.7,20.3c0,15.5-4.7,26.7-14.2,32.8
		C935.4,636.1,923.9,639.8,911.4,639.8z M916.2,794.5h-85.8v-100h87.5c16.5,0,30.1,3.7,40.5,10.8c10.5,7.4,15.5,20.9,15.5,40.5
		c0,9.5-1.7,17.2-4.7,23.3c-3,7.4-7.4,12.5-12.5,15.5c-6.4,4.1-12.5,6.8-18.9,7.8C933,793.8,925.6,794.5,916.2,794.5z M1169.4,794.5
		c-12.5-12.5-18.9-29.7-18.9-51.7H1341c2-20.9,0.7-40.5-4.7-59.4c-5.1-19.9-13.2-36.5-23.3-50c-11.5-14.5-25-26-40.5-34.4
		c-16.5-9.5-36.5-14.2-59.4-14.2c-20.9,0-39.2,3.7-54.7,10.8c-15.5,7.4-29.7,17.2-42.2,29.7c-12.5,12.5-22,27-28,43.9
		c-6.4,16.5-9.5,35.5-9.5,56.4c0,20.9,3,39.5,9.5,56.4c5.1,15.5,14.2,30.1,26.7,43.9c13.5,13.5,27.7,23,42.2,28
		c19.9,7.4,38.5,10.8,56.4,10.8c30.1,0,55.7-7.4,76.7-22c19.9-12.5,35.5-34.8,46.9-67.2h-62.8c-3,8.4-9.8,16.2-20.3,23.3
		c-10.5,7.4-23,10.8-37.5,10.8C1195.4,810,1179.9,804.9,1169.4,794.5z M1138,516.2v34.4h148.2v-34.4H1138z M1252.2,655.3
		c10.5,10.5,16.2,24.3,17.2,42.2h-118.9l4.7-18.9c2-6.4,5.1-12.5,9.5-18.9c2-3,8.4-7.8,18.9-14.2c7.4-4.1,16.5-6.4,28-6.4
		C1228.2,639.8,1241.7,644.9,1252.2,655.3z"/>
</g>
</svg>
