<?xml version="1.0" encoding="utf-8"?>
<!-- Generator: Adobe Illustrator 18.1.0, SVG Export Plug-In . SVG Version: 6.00 Build 0)  -->
<!DOCTYPE svg PUBLIC "-//W3C//DTD SVG 1.1//EN" "http://www.w3.org/Graphics/SVG/1.1/DTD/svg11.dtd">
<svg version="1.1" id="Layer_1" xmlns="http://www.w3.org/2000/svg" xmlns:xlink="http://www.w3.org/1999/xlink" x="0px" y="0px"
	 viewBox="0 270 612 612" enable-background="new 0 270 612 612" xml:space="preserve">
<g display="none">
	<g display="inline">
		<g>
			<path d="M493.8,427.8L356.4,565.3l0,0l-31.1,31.1c-0.5,0.5-1.1,1.1-1.6,1.6c-11.8,8.1-23.1,8.1-34.9,0c-0.5-0.5-1.1-1.1-1.6-1.6
				l-31.7-31.1L118.1,427.8 M480.4,427.8H131.5c-7.5,0-13.4,5.9-13.4,13.4v247.5c0,7.5,5.9,13.4,13.4,13.4h348.3
				c7.5,0,13.4-5.9,13.4-13.4V441.3C493.8,433.7,487.9,427.8,480.4,427.8z"/>
		</g>
		<g>
			<line fill="none" x1="255.5" y1="565.3" x2="118.1" y2="702.7"/>
		</g>
		<g>
			<line fill="none" x1="356.4" y1="565.3" x2="493.8" y2="702.7"/>
		</g>
	</g>
	<path display="inline" fill="#FFFFFF" d="M382.7,569"/>
	<path display="inline" fill="#FFFFFF" d="M360.1,591.6"/>
	<path display="inline" fill="#FFFFFF" d="M229.2,569"/>
	<path display="inline" fill="#FFFFFF" d="M229.2,569"/>
</g>
<g>
	<polygon fill="#222222" points="221.6,577.4 137.9,496.5 137.9,668 	"/>
	<path fill="#222222" stroke="#222222" stroke-width="30" stroke-miterlimit="10" d="M309.7,582.4l106.7-103.3H196l106.7,103.3
		C305.4,584.6,306.6,584.6,309.7,582.4z"/>
	<path fill="#222222" d="M340.1,626.2c-1.6,1.5-3.2,2.6-4.8,3.6c-18.6,12.8-40.4,12.8-58.9,0c-1.6-1.1-3.2-2.6-4.8-3.6l-24.5-23.8
		L164,689.5h283.9l-83.2-87.1L340.1,626.2z"/>
	<path display="none" fill="#222222" d="M587.7,270H24.2C10.8,270,0,280.8,0,294.2v563.6C0,871.2,10.8,882,24.2,882h563.6
		c13.3,0,24.2-10.8,24.2-24.2V294.2C611.9,280.8,601.1,270,587.7,270z"/>
	<path fill="#222222" d="M537,882H75c-41.2,0-75-33.8-75-75V345c0-41.2,33.8-75,75-75h462c41.2,0,75,33.8,75,75v462
		C612,848.3,578.2,882,537,882z M506,723.2V428.8H106.1v294.4"/>
	<polygon fill="#222222" points="474.6,668 474.6,496.5 390.8,577.4 	"/>
</g>
</svg>
