<?xml version="1.0" encoding="utf-8"?>
<!-- Generator: Adobe Illustrator 17.1.0, SVG Export Plug-In . SVG Version: 6.00 Build 0)  -->
<!DOCTYPE svg PUBLIC "-//W3C//DTD SVG 1.1//EN" "http://www.w3.org/Graphics/SVG/1.1/DTD/svg11.dtd">
<svg version="1.1" id="Layer_1" xmlns="http://www.w3.org/2000/svg" xmlns:xlink="http://www.w3.org/1999/xlink" x="0px" y="0px"
	 viewBox="0 0 114 114" enable-background="new 0 0 114 114" xml:space="preserve">
<g display="none">
	<g display="inline">
		<path d="M47.6,55 M22,80.6 M92,80.6 M92,29.4L66.4,55l0,0l-5.8,5.8c-0.1,0.1-0.2,0.2-0.3,0.3c-2.2,1.5-4.3,1.5-6.5,0
			c-0.1-0.1-0.2-0.2-0.3-0.3L47.6,55L22,29.4 M92,29.4 M22,29.4 M92,29.4 M92,80.6 M66.4,55 M89.5,29.4H24.5c-1.4,0-2.5,1.1-2.5,2.5
			v46.1c0,1.4,1.1,2.5,2.5,2.5h64.9c1.4,0,2.5-1.1,2.5-2.5V31.9C92,30.5,90.9,29.4,89.5,29.4z"/>
	</g>
	<g display="inline">
		<line x1="47.6" y1="55" x2="22" y2="80.6"/>
	</g>
	<g display="inline">
		<line x1="66.4" y1="55" x2="92" y2="80.6"/>
	</g>
</g>
<path display="none" fill="#FFFFFF" d="M71.3,55.7"/>
<path display="none" fill="#FFFFFF" d="M67.1,59.9"/>
<path display="none" fill="#FFFFFF" d="M42.7,55.7"/>
<path display="none" fill="#FFFFFF" d="M42.7,55.7"/>
<g>
	<g>
		<g>
			<polygon fill="#222222" points="42.7,57.7 26,41 26,74.4 42.7,57.7 			"/>
			<path fill="#222222" d="M57.8,59.9l24.5-24.5H31.7l24.5,24.5C56.8,60.4,57.1,60.4,57.8,59.9z"/>
			<path fill="#222222" d="M63.4,65.6c-0.3,0.3-0.6,0.5-0.9,0.7c-3.5,2.5-7.6,2.5-11.1,0c-0.3-0.2-0.6-0.5-0.9-0.7l-3.7-3.7
				L30.2,78.6h53.5L67.1,61.9L63.4,65.6z"/>
			<path fill="#222222" d="M103,0H11C4.9,0,0,4.9,0,11v92c0,6.1,4.9,11,11,11h92c6.1,0,11-4.9,11-11V11C114,4.9,109.1,0,103,0z
				 M96,80.1c0,3.6-2.9,6.5-6.5,6.5H24.5c-3.6,0-6.5-2.9-6.5-6.5V33.9c0-3.6,2.9-6.5,6.5-6.5h64.9c3.6,0,6.5,2.9,6.5,6.5V80.1z"/>
			<polygon fill="#222222" points="88,74.4 88,41 71.3,57.7 			"/>
		</g>
	</g>
</g>
</svg>
