<?xml version="1.0" encoding="utf-8"?>
<!-- Generator: Adobe Illustrator 17.1.0, SVG Export Plug-In . SVG Version: 6.00 Build 0)  -->
<!DOCTYPE svg PUBLIC "-//W3C//DTD SVG 1.1//EN" "http://www.w3.org/Graphics/SVG/1.1/DTD/svg11.dtd">
<svg version="1.1" id="Layer_1" xmlns="http://www.w3.org/2000/svg" xmlns:xlink="http://www.w3.org/1999/xlink" x="0px" y="0px"
	 viewBox="0 0 75.8 76.2" enable-background="new 0 0 75.8 76.2" xml:space="preserve">
<path fill="#222222" d="M0,5.5C0,2.4,2.5,0,5.6,0h64.6c3.1,0,5.6,2.4,5.6,5.5v65.3c0,3-2.5,5.5-5.6,5.5H5.6c-3.1,0-5.6-2.4-5.6-5.5
	V5.5z M23,63.8V29.4H11.5v34.4H23z M17.2,24.7c4,0,6.5-2.6,6.5-5.9c-0.1-3.4-2.5-5.9-6.4-5.9c-3.9,0-6.5,2.6-6.5,5.9
	C10.8,22.1,13.3,24.7,17.2,24.7L17.2,24.7L17.2,24.7z M29.3,63.8h11.4V44.6c0-1,0.1-2.1,0.4-2.8c0.8-2.1,2.7-4.2,5.9-4.2
	c4.1,0,5.8,3.2,5.8,7.8v18.4h11.4V44.1c0-10.6-5.6-15.5-13.2-15.5c-6.2,0-8.9,3.5-10.4,5.8h0.1v-5H29.3
	C29.5,32.6,29.3,63.8,29.3,63.8L29.3,63.8z"/>
</svg>
