<?xml version="1.0" encoding="utf-8"?>
<!-- Generator: Adobe Illustrator 18.1.0, SVG Export Plug-In . SVG Version: 6.00 Build 0)  -->
<!DOCTYPE svg PUBLIC "-//W3C//DTD SVG 1.1//EN" "http://www.w3.org/Graphics/SVG/1.1/DTD/svg11.dtd">
<svg version="1.1" id="Layer_1" xmlns="http://www.w3.org/2000/svg" xmlns:xlink="http://www.w3.org/1999/xlink" x="0px" y="0px"
	 viewBox="0 88.4 612 612" enable-background="new 0 88.4 612 612" xml:space="preserve">
<path fill="#222222" d="M185.7,603.5V325.8H92.8v277.7L185.7,603.5L185.7,603.5z M138.9,287.8c32.3,0,52.5-21,52.5-47.6
	c-0.8-27.5-20.2-47.6-51.7-47.6s-52.5,21-52.5,47.6C87.2,266.8,107.4,287.8,138.9,287.8L138.9,287.8L138.9,287.8z M236.6,603.5h92
	v-155c0-8.1,0.8-17,3.2-22.6c6.5-17,21.8-33.9,47.6-33.9c33.1,0,46.8,25.8,46.8,63v148.6h92V444.4c0-85.6-45.2-125.1-106.6-125.1
	c-50.1,0-71.9,28.3-84,46.8h0.8v-40.4h-92C238.2,351.6,236.6,603.5,236.6,603.5L236.6,603.5z M537,700.4H75c-41.2,0-75-33.8-75-75
	v-462c0-41.2,33.8-75,75-75h462c41.2,0,75,33.8,75,75v462C612,666.6,578.2,700.4,537,700.4z"/>
</svg>
