<?xml version="1.0" encoding="utf-8"?>
<!-- Generator: Adobe Illustrator 18.0.0, SVG Export Plug-In . SVG Version: 6.00 Build 0)  -->
<!DOCTYPE svg PUBLIC "-//W3C//DTD SVG 1.1//EN" "http://www.w3.org/Graphics/SVG/1.1/DTD/svg11.dtd">
<svg version="1.1" id="Layer_1" xmlns="http://www.w3.org/2000/svg" xmlns:xlink="http://www.w3.org/1999/xlink" x="0px" y="0px"
	 viewBox="3.5 346.5 601.9 79.9" enable-background="new 3.5 346.5 601.9 79.9" xml:space="preserve">
<g enable-background="new    ">
	<path fill="#FAFAFA" d="M66.4,409.3c0,8.5,2.4,13.2,2.4,13.2s-2.9,3.2-6.8,3.2c-3.9,0-6.3-3.1-7.4-7.5c-4.1,4.2-10.7,7.6-19.7,7.6
		c-18,0-31.4-13.3-31.4-34.7c0-23,15.9-39.5,38-39.5c12.6,0,22.4,5.3,22.4,12.1c0,5.2-5.7,8.3-5.7,8.3s-5-9.7-17.2-9.7
		c-13.2,0-23.1,11.2-23.1,27.1c0,15.9,9.1,25.5,21.7,25.5c6.6,0,11.2-2.6,14.2-5.4v-1.2l0-9.8h-10l0.9-6.6c0.2-1.5,1.2-2.6,2.8-2.6
		l6.3,0h12.6l0,19V409.3z"/>
	<path fill="#FAFAFA" d="M106.9,372.3c3.8,0,6.5,2.1,6.5,6c0,4.9-4.3,8.4-4.3,8.4s-1.9-3.1-5.6-3.1c-4.3,0-7.9,4.4-10.1,8.2l0,22.7
		v10.3c-3.6,0-8.1,0.4-9.7,0.4c-1.4,0-2.9-1.2-2.9-1.2v-9.5v-25.8c0-8.5-2.4-13.2-2.4-13.2s2.9-3.2,6.8-3.2c4.5,0,7,4.2,7.9,9.8
		C96.5,377,101.2,372.3,106.9,372.3L106.9,372.3z"/>
	<path fill="#FAFAFA" d="M156.8,409.3c0,8.5,2.4,13.2,2.4,13.2s-2.9,3.2-6.8,3.2c-3.3,0-5.5-2.2-6.8-5.6c-3.7,2.9-8.8,5.8-15.1,5.8
		c-8.7,0-15.9-5.5-15.9-14.9c0-9.3,6.8-14,19.3-15.2l10.5-1l0-1.8c0.1-7.4-3.1-11.5-10.6-11.5c-8.6,0-12.8,5.4-12.8,5.4
		s-2.8-1.3-2.8-4.2c0-4.5,7.4-10.4,18.5-10.4c13,0,20.6,7.5,20.3,21.5l-0.2,14.5V409.3z M134.7,416.9c3.5,0,6.9-1.4,9.6-3
		c-0.1-0.8-0.1-1.7-0.1-2.5v-3.1l0.1-6.8l-8.7,0.8c-5.2,0.5-8.9,2.9-8.9,7.5C126.7,413.9,129.6,416.9,134.7,416.9L134.7,416.9z"/>
	<path fill="#FAFAFA" d="M216.4,424.8c-3.6,0-8.1,0.4-9.7,0.4c-1.4,0-2.9-1.2-2.9-1.2v-9.5v-22.3c0-6.1-3-9.8-9.3-9.8
		c-5.2,0-9.5,2.7-11.4,4.2v28v10.3c-3.6,0-8.1,0.4-9.7,0.4c-1.4,0-2.9-1.2-2.9-1.2v-9.5v-53.1c0-6-0.6-12.4-0.6-12.4
		c3.7-0.7,8.8-2.5,10.3-2.5c1.4,0,2.9,1.1,2.9,1.1v12.8v11.3c0,3-0.2,5.4-0.4,7c3.3-2.7,9.5-6.5,17.6-6.5c10.1,0,16.1,6.5,16.1,18.6
		v23.6V424.8z"/>
	<path fill="#FAFAFA" d="M269.3,409.3c0,8.5,2.4,13.2,2.4,13.2s-2.9,3.2-6.8,3.2c-3.3,0-5.5-2.2-6.8-5.6c-3.7,2.9-8.8,5.8-15.1,5.8
		c-8.7,0-15.9-5.5-15.9-14.9c0-9.3,6.8-14,19.3-15.2l10.5-1l0-1.8c0.1-7.4-3.1-11.5-10.6-11.5c-8.6,0-12.8,5.4-12.8,5.4
		s-2.8-1.3-2.8-4.2c0-4.5,7.4-10.4,18.5-10.4c13,0,20.6,7.5,20.3,21.5l-0.2,14.5V409.3z M247.2,416.9c3.5,0,6.9-1.4,9.6-3
		c-0.1-0.8-0.1-1.7-0.1-2.5v-3.1l0.1-6.8l-8.7,0.8c-5.2,0.5-8.9,2.9-8.9,7.5C239.2,413.9,242.1,416.9,247.2,416.9L247.2,416.9z"/>
	<path fill="#FAFAFA" d="M359.8,424.8c-3.6,0-8.1,0.4-9.7,0.4c-1.4,0-2.9-1.2-2.9-1.2l0-9.5v-22.3c0-6.1-2.8-9.8-8.8-9.8
		c-5.1,0-9.2,3-10.9,4.3c0.2,1.3,0.3,2.7,0.3,4.2v23.6v10.3c-3.6,0-8.1,0.4-9.7,0.4c-1.4,0-2.9-1.2-2.9-1.2v-9.5v-22.3
		c0-6.1-2.8-9.8-8.7-9.8c-4.8,0-8.8,2.7-10.6,4.1l0,0.2v3.1v24.7v10.3c-3.6,0-8.1,0.4-9.7,0.4c-1.4,0-2.9-1.2-2.9-1.2v-9.5v-24.7v-1
		c0-8.5-2.4-13.2-2.4-13.2s2.9-3.2,6.8-3.2c3.7,0,6,2.8,7.2,6.9c3-2.7,9.2-7,17.4-7c6.3,0,11,2.7,13.4,8c2.5-2.4,9.1-8,18.5-8
		c9.8,0,15.5,6.5,15.5,18.6l0,23.6L359.8,424.8z"/>
	<path fill="#FAFAFA" d="M456.4,419.1c0,0,0.2,7.4-8.6,7.4c-4,0-10.9-1.5-17.8-13.1l-12.5-21c-1.2-2.2-0.3-3.5,1.6-4
		c9.6-2.5,16.7-6.7,16.7-15.2c0-7.7-5.7-11-14.9-11c-2.8,0-6.2,0.3-9,0.6l0,51.8v10.3c-3.5,0-9.3,0.4-11,0.4c-1.4,0-2.9-1.2-2.9-1.2
		v-9.5v-60.8c0,0,10-2.1,21.5-2.1c18.5,0,30.1,5.3,30.1,19.4c0,13.5-11.1,20-18.1,22.3c0.8,0.9,1.7,1.9,2.6,3.1l8,10.6
		C449.7,417.4,456.4,419.1,456.4,419.1L456.4,419.1z"/>
	<path fill="#FAFAFA" d="M486.6,372.3c14.4,0,24.2,10.3,24.2,25.6c0,16.4-11.2,27.9-26.6,27.9c-14.4,0-24.2-10.3-24.2-25.6
		C460,383.8,471.2,372.3,486.6,372.3L486.6,372.3z M472.6,397.4c0,8,3.7,19.1,13.5,19.1c7.5,0,12.4-6.6,12.4-15.6
		c0-7.9-3.7-19.1-13.6-19.1C477.5,381.8,472.6,388.4,472.6,397.4z"/>
	<path fill="#FAFAFA" d="M533.8,359.9c1.4,0,2.9,1.1,2.9,1.1l-0.1,12.2h14l-0.8,5.7c-0.2,1.8-1,2.8-2.8,2.8h-10.2v27.9
		c0,4.4,2.2,6.2,5.4,6.2c3.3,0,5.2-1.9,5.2-1.9s3.1,1.5,3.1,4.3c0,3.5-5,7.5-12.6,7.5c-8.2,0-13.6-4.8-13.6-14.3v-29.7h-7.7l0.8-6
		c0.2-1.5,1.2-2.6,2.8-2.6l5.4,0l1.4-11.7C529.8,360.9,532.7,359.9,533.8,359.9L533.8,359.9z"/>
	<path fill="#FAFAFA" d="M605.5,424.8c-3.6,0-8.1,0.4-9.7,0.4c-1.4,0-2.9-1.2-2.9-1.2v-9.5v-22.3c0-6.1-3-9.8-9.3-9.8
		c-5.2,0-9.5,2.7-11.4,4.2v28v10.3c-3.6,0-8.1,0.4-9.7,0.4c-1.4,0-2.9-1.2-2.9-1.2v-9.5v-53.1c0-6-0.6-12.4-0.6-12.4
		c3.7-0.7,8.8-2.5,10.3-2.5c1.4,0,2.9,1.1,2.9,1.1v12.8v11.3c0,3-0.2,5.4-0.4,7c3.3-2.7,9.5-6.5,17.6-6.5c10.1,0,16.1,6.5,16.1,18.6
		v23.6V424.8z"/>
</g>
</svg>
