<?xml version="1.0" encoding="utf-8"?>
<!-- Generator: Adobe Illustrator 18.1.0, SVG Export Plug-In . SVG Version: 6.00 Build 0)  -->
<!DOCTYPE svg PUBLIC "-//W3C//DTD SVG 1.1//EN" "http://www.w3.org/Graphics/SVG/1.1/DTD/svg11.dtd">
<svg version="1.1" id="Layer_1" xmlns="http://www.w3.org/2000/svg" xmlns:xlink="http://www.w3.org/1999/xlink" x="0px" y="0px"
	 viewBox="0 180 612.1 612" enable-background="new 0 180 612.1 612" xml:space="preserve">
<path fill="#222222" d="M537.1,792.1H75c-41.2,0-75-33.8-75-75V255c0-41.2,33.8-75,75-75h462.1c41.2,0,75,33.8,75,75v462.1
	C612.1,758.4,578.4,792.1,537.1,792.1z M460.7,390.4c0.5-0.5,1-0.9,1.5-1.4l20.4-20.4c12.1-12.1,13.9-29.9,4-39.8l-31-31
	c-9.9-9.9-27.7-8.1-39.8,4l-20.4,20.4c-0.5,0.5-1,1-1.4,1.5L460.7,390.4z M381,336.8L141.5,576.3l66.7,66.7l239.5-239.5L381,336.8z
	 M127.8,590.8L106,678.4l87.7-21.8L127.8,590.8z M497.5,674.8c-36.2-0.3-40.7-9-52.5-45.3c-21.7-57.3-119.7,15-59,40.1
	C446.7,694.7,533.7,675.1,497.5,674.8z M375.3,574.5l-29.8-44L312,563.9l32.3,35.5c18.3,22.7,14.1,21.7,31.7,7.6
	C393.5,592.9,393.6,597.2,375.3,574.5z M268.9,423.7l-77.4-111.1c-18.3-22.7-47.4-29.7-65-15.6s-16.9,44,1.4,66.8L224,468.6
	L268.9,423.7z"/>
</svg>
