<?xml version="1.0" encoding="utf-8"?>
<!-- Generator: Adobe Illustrator 21.1.0, SVG Export Plug-In . SVG Version: 6.00 Build 0)  -->
<svg version="1.1" id="Layer_1" xmlns="http://www.w3.org/2000/svg" xmlns:xlink="http://www.w3.org/1999/xlink" x="0px" y="0px"
	 viewBox="0 0 48 48" style="enable-background:new 0 0 48 48;" xml:space="preserve">
<style type="text/css">
	.st0{fill:#FFFFFF;}
	.st1{fill:none;stroke:#FFFFFF;stroke-linecap:round;stroke-miterlimit:10;}
</style>
<g>
	<g>
		<path class="st0" d="M44.8,16v14.6H30.2V16H44.8 M44.8,15H30.2c-0.5,0-1,0.4-1,1v14.6c0,0.5,0.5,1,1,1h14.6c0.5,0,1-0.5,1-1V16
			C45.8,15.5,45.4,15,44.8,15L44.8,15z"/>
	</g>
	<g>
		<path class="st1" d="M11.6,12.5C12,12,16.7,5.8,24.8,6c6,0.1,11.5,3.6,14.1,9"/>
		<line class="st1" x1="11.1" y1="8.8" x2="11.6" y2="12.5"/>
		<line class="st1" x1="15.7" y1="12.2" x2="11.6" y2="12.5"/>
	</g>
</g>
<g>
	<g>
		<path class="st0" d="M19.4,18.4V33H4.8V18.4H19.4 M19.4,17.4H4.8c-0.6,0-1,0.5-1,1V33c0,0.5,0.5,1,1,1h14.6c0.5,0,1-0.5,1-1V18.4
			C20.4,17.8,19.9,17.4,19.4,17.4L19.4,17.4z"/>
	</g>
	<g>
		<path class="st1" d="M38.1,36.5c-0.4,0.5-5.1,6.7-13.3,6.5c-6-0.1-11.5-3.6-14.1-9"/>
		<line class="st1" x1="38.6" y1="40.2" x2="38.1" y2="36.5"/>
		<line class="st1" x1="34" y1="36.8" x2="38.1" y2="36.5"/>
	</g>
</g>
</svg>
