<?xml version="1.0" encoding="utf-8"?>
<!-- Generator: Adobe Illustrator 21.1.0, SVG Export Plug-In . SVG Version: 6.00 Build 0)  -->
<svg version="1.1" id="Layer_1" xmlns="http://www.w3.org/2000/svg" xmlns:xlink="http://www.w3.org/1999/xlink" x="0px" y="0px"
	 viewBox="0 0 48 48" style="enable-background:new 0 0 48 48;" xml:space="preserve">
<style type="text/css">
	.st0{fill:#FFFFFF;}
</style>
<g>
	<g>
		<path class="st0" d="M24,3c0,0,6.4,4.7,6.4,10.5S24,24,24,24s-6.4-4.7-6.4-10.5S24,3,24,3 M24,1.8l-0.6,0.4
			c-0.3,0.2-6.8,5.1-6.8,11.3s6.5,11.1,6.8,11.3l0.6,0.4l0.6-0.4c0.3-0.2,6.8-5.1,6.8-11.3S24.9,2.4,24.6,2.2L24,1.8L24,1.8z"/>
	</g>
	<g>
		<path class="st0" d="M24,24c0,0,6.4,4.7,6.4,10.5C30.4,40.3,24,45,24,45s-6.4-4.7-6.4-10.5C17.6,28.7,24,24,24,24 M24,22.8
			l-0.6,0.4c-0.3,0.2-6.8,5.1-6.8,11.3c0,6.2,6.5,11.1,6.8,11.3l0.6,0.4l0.6-0.4c0.3-0.2,6.8-5.1,6.8-11.3c0-6.2-6.5-11.1-6.8-11.3
			L24,22.8L24,22.8z"/>
	</g>
	<g>
		<path class="st0" d="M31.1,22.7c1.9,0,3.8,0.3,5.6,1.3c5.2,2.9,6.3,10.6,6.3,10.6s-3.4,1.3-7.1,1.3c-1.9,0-3.8-0.3-5.6-1.3
			C25.1,31.7,24,24,24,24S27.4,22.7,31.1,22.7 M31.1,21.7c-3.9,0-7.4,1.3-7.5,1.4l-0.7,0.3l0.1,0.8c0,0.3,1.2,8.2,6.8,11.3
			c1.7,0.9,3.7,1.4,6,1.4c3.9,0,7.4-1.3,7.5-1.4l0.7-0.3L44,34.4c0-0.3-1.2-8.2-6.8-11.3C35.5,22.1,33.5,21.7,31.1,21.7L31.1,21.7z"
			/>
	</g>
	<g>
		<path class="st0" d="M12.1,12.2c1.9,0,3.8,0.3,5.6,1.3C22.9,16.3,24,24,24,24s-3.4,1.3-7.1,1.3c-1.9,0-3.8-0.3-5.6-1.3
			C6.1,21.2,5,13.5,5,13.5S8.4,12.2,12.1,12.2 M12.1,11.2c-3.9,0-7.4,1.3-7.5,1.4l-0.7,0.3L4,13.6c0,0.3,1.2,8.2,6.8,11.3
			c1.7,0.9,3.7,1.4,6,1.4c3.9,0,7.4-1.3,7.5-1.4l0.7-0.3L25,23.9c0-0.3-1.2-8.2-6.8-11.3C16.5,11.6,14.5,11.2,12.1,11.2L12.1,11.2z"
			/>
	</g>
	<g>
		<path class="st0" d="M35.9,12.2c3.8,0,7.1,1.3,7.1,1.3s-1.1,7.7-6.3,10.6c-1.7,1-3.7,1.3-5.6,1.3C27.4,25.3,24,24,24,24
			s1.1-7.7,6.3-10.6C32,12.5,34,12.2,35.9,12.2 M35.9,11.2L35.9,11.2c-2.3,0-4.4,0.5-6,1.4c-5.6,3.1-6.8,11-6.8,11.3l-0.1,0.8
			l0.7,0.3c0.1,0.1,3.6,1.4,7.5,1.4c2.3,0,4.4-0.5,6-1.4c5.6-3.1,6.8-11,6.8-11.3l0.1-0.8l-0.7-0.3C43.2,12.5,39.8,11.2,35.9,11.2
			L35.9,11.2z"/>
	</g>
	<g>
		<path class="st0" d="M16.9,22.7c3.8,0,7.1,1.3,7.1,1.3s-1.1,7.7-6.3,10.6c-1.7,1-3.7,1.3-5.6,1.3c-3.8,0-7.1-1.3-7.1-1.3
			s1.1-7.7,6.3-10.6C13,23,15,22.7,16.9,22.7 M16.9,21.7L16.9,21.7c-2.3,0-4.4,0.5-6,1.4C5.2,26.2,4.1,34,4,34.4l-0.1,0.8l0.7,0.3
			c0.1,0.1,3.6,1.4,7.5,1.4c2.3,0,4.4-0.5,6-1.4c5.6-3.1,6.8-11,6.8-11.3l0.1-0.8l-0.7-0.3C24.2,23,20.8,21.7,16.9,21.7L16.9,21.7z"
			/>
	</g>
</g>
</svg>
